<?xml version="1.0" standalone="no"?>
<!DOCTYPE svg PUBLIC "-//W3C//DTD SVG 20010904//EN"
 "http://www.w3.org/TR/2001/REC-SVG-20010904/DTD/svg10.dtd">
<svg version="1.0" xmlns="http://www.w3.org/2000/svg"
 width="199.000000pt" height="199.000000pt" viewBox="0 0 199.000000 199.000000"
 preserveAspectRatio="xMidYMid meet">
<metadata>
Created by potrace 1.14, written by Peter Selinger 2001-2017
</metadata>
<g transform="translate(0.000000,199.000000) scale(0.100000,-0.100000)"
fill="#000000" stroke="none">
<path d="M1375 1950 c-3 -5 -1 -10 4 -10 6 0 11 5 11 10 0 6 -2 10 -4 10 -3 0
-8 -4 -11 -10z"/>
<path d="M1296 1852 c-3 -5 1 -9 9 -9 8 0 12 4 9 9 -3 4 -7 8 -9 8 -2 0 -6 -4
-9 -8z"/>
<path d="M1355 1850 c3 -5 8 -10 11 -10 2 0 4 5 4 10 0 6 -5 10 -11 10 -5 0
-7 -4 -4 -10z"/>
<path d="M1296 1808 c3 -5 10 -6 15 -3 13 9 11 12 -6 12 -8 0 -12 -4 -9 -9z"/>
<path d="M1263 1751 c-3 -13 -11 -18 -21 -14 -14 4 -15 3 -2 -5 16 -12 30 -7
30 13 0 7 6 16 13 18 9 4 9 6 -1 6 -8 1 -16 -8 -19 -18z"/>
<path d="M1313 1763 c-15 -5 -17 -23 -4 -23 5 0 11 7 15 15 3 8 4 15 3 14 -1
0 -8 -3 -14 -6z"/>
<path d="M1279 1733 c0 -5 -3 -19 -5 -32 -2 -14 -2 -22 1 -19 8 8 17 58 10 58
-3 0 -5 -3 -6 -7z"/>
<path d="M1228 1708 c5 -5 16 -8 23 -6 8 3 3 7 -10 11 -17 4 -21 3 -13 -5z"/>
<path d="M1302 1715 c7 -8 58 -13 62 -7 2 4 -12 8 -31 9 -19 1 -34 0 -31 -2z"/>
<path d="M1179 1688 c-11 -8 -10 -9 4 -4 22 7 22 -3 0 -19 -13 -9 -13 -14 -3
-20 7 -5 11 -4 8 1 -4 8 26 45 34 41 2 -1 2 0 0 2 -5 9 -30 9 -43 -1z"/>
<path d="M1295 1690 c-8 -13 3 -30 18 -29 9 0 9 2 0 6 -7 2 -13 9 -13 14 0 4
7 6 15 3 8 -4 15 -4 15 -1 0 10 -30 16 -35 7z"/>
<path d="M1250 1673 c17 -8 11 -19 -10 -20 -13 -1 -18 2 -14 9 4 7 2 8 -5 4
-17 -11 -3 -26 22 -22 24 3 31 28 9 32 -7 1 -8 0 -2 -3z"/>
<path d="M1276 1643 c-6 -14 -5 -15 5 -6 7 7 10 15 7 18 -3 3 -9 -2 -12 -12z"/>
<path d="M1140 1635 c-7 -8 -9 -15 -4 -16 5 0 0 -5 -11 -10 l-20 -9 20 3 c11
1 21 8 21 15 3 25 6 26 14 7 7 -16 9 -17 9 -3 1 24 -14 31 -29 13z"/>
<path d="M1195 1630 c-3 -6 -1 -18 5 -27 9 -16 10 -15 5 4 -5 18 -3 22 9 17 9
-3 16 -4 16 -1 0 10 -30 16 -35 7z"/>
<path d="M1300 1629 c0 -5 5 -7 10 -4 6 3 10 8 10 11 0 2 -4 4 -10 4 -5 0 -10
-5 -10 -11z"/>
<path d="M1270 1610 c0 -5 5 -10 10 -10 6 0 10 5 10 10 0 6 -4 10 -10 10 -5 0
-10 -4 -10 -10z"/>
<path d="M1170 1590 c0 -5 5 -10 10 -10 6 0 10 5 10 10 0 6 -4 10 -10 10 -5 0
-10 -4 -10 -10z"/>
<path d="M1250 1593 c17 -8 11 -19 -10 -20 -13 -1 -18 2 -14 9 4 7 2 8 -5 4
-17 -11 -3 -26 22 -22 24 3 31 28 9 32 -7 1 -8 0 -2 -3z"/>
<path d="M1115 1577 c11 -7 21 -20 23 -31 2 -12 -1 -16 -9 -10 -8 4 -10 3 -5
-5 11 -17 26 -3 23 20 -3 21 -23 39 -42 38 -5 0 -1 -5 10 -12z"/>
<path d="M1075 1570 c-3 -5 -1 -10 4 -10 6 0 11 5 11 10 0 6 -2 10 -4 10 -3 0
-8 -4 -11 -10z"/>
<path d="M1161 1554 c0 -11 3 -14 6 -6 3 7 2 16 -1 19 -3 4 -6 -2 -5 -13z"/>
<path d="M1190 1561 c0 -5 5 -13 10 -16 6 -3 10 -2 10 4 0 5 -4 13 -10 16 -5
3 -10 2 -10 -4z"/>
<path d="M1053 1550 c2 -8 -3 -21 -12 -27 -14 -12 -14 -14 -1 -25 8 -7 17 -22
18 -33 3 -16 1 -18 -9 -7 -7 6 -17 12 -23 12 -5 0 -1 -6 9 -14 11 -8 23 -12
27 -10 12 8 3 45 -13 54 -12 8 -11 11 3 22 13 10 15 17 7 28 -9 13 -10 13 -6
0z"/>
<path d="M1081 1543 c-1 -17 16 -25 25 -12 4 7 3 9 -4 5 -5 -3 -13 0 -15 6 -4
9 -6 10 -6 1z"/>
<path d="M1228 1539 c-10 -5 -24 -9 -32 -7 -8 2 -21 -5 -29 -16 -11 -15 -18
-16 -33 -8 -14 7 -25 7 -35 0 -12 -8 -11 -9 2 -5 9 3 22 1 29 -3 11 -7 4 -20
-30 -58 -48 -53 -64 -61 -74 -36 -3 8 -11 12 -17 8 -9 -5 -10 1 -5 22 5 24 4
26 -5 11 -12 -20 -5 -52 10 -43 7 5 21 -14 21 -28 0 -12 -38 -42 -49 -38 -9 3
-11 0 -6 -7 4 -8 -27 -46 -85 -104 -51 -50 -99 -101 -107 -114 -8 -13 -19 -20
-24 -17 -5 3 -9 -1 -9 -8 0 -25 -37 -47 -64 -40 -14 4 -26 12 -26 17 -1 6 -10
9 -21 8 -13 -2 -18 1 -13 9 4 7 3 8 -5 4 -18 -11 -2 -28 20 -21 13 4 19 2 17
-7 -2 -7 7 -14 20 -16 28 -4 28 -13 1 -36 -13 -11 -24 -14 -28 -8 -4 7 -13 5
-26 -5 -20 -15 -20 -15 3 -8 26 7 28 0 7 -21 -8 -9 -15 -24 -15 -33 0 -22 25
-45 40 -36 6 3 10 -3 10 -14 0 -12 4 -21 10 -21 5 0 6 7 3 17 -4 10 -2 14 5 9
6 -3 13 -2 17 4 4 7 12 7 26 0 10 -6 19 -7 19 -2 0 15 40 8 41 -8 0 -10 3 -9
8 5 8 19 8 19 15 -2 4 -13 12 -23 18 -23 6 0 5 7 -3 17 -12 14 -12 16 1 11 8
-3 24 -1 35 5 19 10 19 9 1 -18 -10 -15 -14 -25 -8 -21 6 4 8 -2 5 -14 -5 -18
-15 -25 -36 -21 -5 1 -6 -3 -2 -9 3 -6 11 -8 16 -5 11 7 12 -8 2 -19 -5 -4 -8
-11 -9 -14 0 -4 -4 -22 -8 -40 -7 -29 -10 -31 -24 -20 -12 9 -11 6 2 -10 19
-22 19 -22 -5 -23 -17 -1 -19 -3 -7 -6 15 -4 16 -8 6 -26 -6 -12 -11 -24 -10
-27 2 -6 -14 -61 -30 -102 -6 -15 -15 -25 -22 -22 -6 3 0 -3 13 -14 l24 -19
-23 -6 c-12 -3 -19 -10 -16 -15 3 -6 1 -13 -4 -15 -6 -3 -5 -4 2 -3 7 2 12 9
11 15 -3 10 13 15 44 14 11 -1 149 133 201 195 19 21 39 31 27 13 -9 -15 15
-25 28 -12 9 9 8 11 -3 6 -34 -12 -17 34 27 75 36 35 47 41 55 29 8 -11 8 -10
4 5 -4 12 1 27 15 43 22 22 46 32 34 14 -3 -6 4 -15 15 -21 13 -7 20 -7 20 0
0 5 -7 10 -16 10 -8 0 -13 4 -9 9 3 5 0 13 -5 16 -7 4 1 16 19 29 17 13 28 26
24 29 -6 7 12 11 31 8 5 -1 6 4 3 12 -6 15 44 67 64 67 7 0 10 3 7 6 -7 6 34
50 43 47 3 -1 5 9 4 21 -3 27 -45 75 -45 52 0 -16 -40 -10 -52 8 -5 7 -8 5 -8
-6 0 -12 -6 -15 -22 -10 -13 3 -26 10 -30 16 -5 7 -8 6 -8 -4 0 -12 -11 -14
-52 -11 l-52 3 25 19 c17 14 19 17 5 13 -17 -6 -17 -5 -5 17 7 13 12 32 10 42
-1 9 2 17 8 17 6 0 8 8 5 18 -5 14 -3 14 12 -3 l17 -20 -8 20 c-10 26 -9 66 2
74 4 3 8 11 8 16 1 10 22 86 33 115 3 8 4 19 3 24 -1 5 6 6 15 2 14 -5 15 -4
5 8 -9 11 -9 15 1 19 11 4 10 6 0 6 -7 1 -10 6 -7 11 5 8 11 7 21 -1 12 -10
13 -9 8 5 -4 10 -12 15 -19 12 -24 -9 -26 8 -3 21 13 7 19 12 13 12 -5 0 -18
-4 -27 -10z"/>
<path d="M1005 1489 c-4 -6 -4 -13 -1 -16 3 -4 6 -1 6 6 0 7 5 9 12 5 7 -4 8
-3 4 4 -9 15 -13 15 -21 1z"/>
<path d="M1080 1485 c0 -5 5 -17 10 -25 5 -8 10 -10 10 -5 0 6 -5 17 -10 25
-5 8 -10 11 -10 5z"/>
<path d="M980 1461 c0 -7 -5 -9 -12 -5 -7 5 -8 3 -3 -5 5 -9 10 -10 18 -2 6 6
8 14 4 18 -4 3 -7 1 -7 -6z"/>
<path d="M950 1431 c0 -5 5 -13 10 -16 6 -3 10 -2 10 4 0 5 -4 13 -10 16 -5 3
-10 2 -10 -4z"/>
<path d="M1032 1420 c7 -10 14 -18 15 -16 6 6 -9 36 -18 36 -5 0 -4 -9 3 -20z"/>
<path d="M1235 1429 c-4 -6 -4 -13 -1 -16 3 -4 6 -1 6 6 0 7 5 9 10 6 6 -3 10
-1 10 4 0 14 -17 14 -25 0z"/>
<path d="M853 1415 c0 -8 4 -12 9 -9 5 3 6 10 3 15 -9 13 -12 11 -12 -6z"/>
<path d="M930 1410 c0 -5 5 -10 11 -10 5 0 7 5 4 10 -3 6 -8 10 -11 10 -2 0
-4 -4 -4 -10z"/>
<path d="M910 1395 c0 -5 5 -17 10 -25 5 -8 10 -10 10 -5 0 6 -5 17 -10 25 -5
8 -10 11 -10 5z"/>
<path d="M955 1390 c-13 -6 -15 -9 -5 -9 8 0 22 4 30 9 18 12 2 12 -25 0z"/>
<path d="M880 1369 c-13 -9 -12 -10 3 -5 19 6 24 -10 5 -17 -10 -4 -10 -6 -1
-6 16 -1 27 19 17 29 -5 5 -16 5 -24 -1z"/>
<path d="M975 1371 c-3 -5 0 -13 6 -17 8 -5 9 -3 4 6 -6 10 -4 12 8 7 10 -3
17 -2 17 3 0 13 -27 13 -35 1z"/>
<path d="M1216 1371 c-4 -5 3 -7 14 -4 23 6 26 13 6 13 -8 0 -17 -4 -20 -9z"/>
<path d="M940 1350 c0 -5 5 -10 10 -10 6 0 10 5 10 10 0 6 -4 10 -10 10 -5 0
-10 -4 -10 -10z"/>
<path d="M1220 1350 c-9 -6 -10 -10 -3 -10 6 0 15 5 18 10 8 12 4 12 -15 0z"/>
<path d="M850 1330 c-9 -6 -10 -10 -3 -10 6 0 15 5 18 10 8 12 4 12 -15 0z"/>
<path d="M910 1330 c0 -5 5 -10 10 -10 6 0 10 5 10 10 0 6 -4 10 -10 10 -5 0
-10 -4 -10 -10z"/>
<path d="M1198 1323 c7 -3 16 -2 19 1 4 3 -2 6 -13 5 -11 0 -14 -3 -6 -6z"/>
<path d="M883 1312 c10 -4 18 -12 18 -17 -1 -6 8 -10 19 -10 11 0 20 4 19 10
0 5 8 13 18 17 16 7 16 8 -2 5 -11 -2 -19 -9 -17 -15 1 -7 -7 -12 -18 -12 -11
0 -19 5 -17 12 1 6 -7 13 -18 15 -18 3 -18 2 -2 -5z"/>
<path d="M755 1289 c-3 -4 2 -6 10 -5 21 3 28 13 10 13 -9 0 -18 -4 -20 -8z"/>
<path d="M859 1298 c0 -2 -2 -13 -3 -26 -3 -28 8 -37 31 -22 16 10 15 10 -3 5
-17 -4 -22 -1 -20 12 0 10 6 21 11 25 6 5 5 8 -2 8 -7 0 -13 -1 -14 -2z"/>
<path d="M1180 1286 c0 -2 7 -7 16 -10 8 -3 12 -2 9 4 -6 10 -25 14 -25 6z"/>
<path d="M814 1269 c-3 -6 -1 -16 5 -22 9 -9 10 -7 5 7 -5 13 -4 17 4 12 7 -4
12 -2 12 3 0 14 -17 14 -26 0z"/>
<path d="M794 1236 c3 -16 8 -31 11 -35 3 -3 4 7 1 23 -3 16 -8 31 -11 35 -3
3 -4 -7 -1 -23z"/>
<path d="M830 1230 c-13 -8 -12 -10 3 -10 9 0 17 5 17 10 0 12 -1 12 -20 0z"/>
<path d="M646 1208 c3 -5 10 -6 15 -3 13 9 11 12 -6 12 -8 0 -12 -4 -9 -9z"/>
<path d="M737 1212 c-2 -4 -3 -16 -3 -27 1 -14 8 -20 26 -20 34 0 37 46 3 51
-12 2 -24 0 -26 -4z m40 -23 c-1 -10 -9 -17 -18 -16 -10 1 -17 9 -16 18 1 10
9 17 18 16 10 -1 17 -9 16 -18z"/>
<path d="M820 1189 c0 -5 5 -7 10 -4 6 3 10 8 10 11 0 2 -4 4 -10 4 -5 0 -10
-5 -10 -11z"/>
<path d="M1162 1186 c7 -8 15 -12 17 -11 5 6 -10 25 -20 25 -5 0 -4 -6 3 -14z"/>
<path d="M701 1153 c-1 -16 -6 -21 -21 -18 -11 2 -23 -1 -26 -7 -4 -7 -2 -8 4
-4 12 7 16 -4 13 -34 -2 -13 0 -13 8 -1 5 8 7 21 3 29 -3 10 -1 13 6 8 14 -8
27 17 19 36 -3 7 -6 3 -6 -9z"/>
<path d="M1270 1166 c0 -2 8 -10 18 -17 15 -13 16 -12 3 4 -13 16 -21 21 -21
13z"/>
<path d="M1173 1148 c2 -7 -3 -19 -12 -26 -14 -11 -13 -12 6 -2 14 6 20 16 17
25 -7 18 -17 20 -11 3z"/>
<path d="M1419 1153 c-1 -5 -1 -12 0 -17 1 -5 -5 -6 -14 -2 -10 3 -14 2 -10
-5 9 -14 28 -6 31 14 1 9 0 17 -2 17 -2 0 -5 -3 -5 -7z"/>
<path d="M748 1143 c7 -3 16 -2 19 1 4 3 -2 6 -13 5 -11 0 -14 -3 -6 -6z"/>
<path d="M1456 1133 c-6 -14 -5 -15 5 -6 7 7 10 15 7 18 -3 3 -9 -2 -12 -12z"/>
<path d="M720 1130 c0 -5 0 -13 0 -17 0 -5 11 -8 24 -8 14 -1 22 3 19 7 -2 5
-13 6 -24 3 -14 -5 -17 -3 -13 9 3 9 3 16 0 16 -3 0 -6 -4 -6 -10z"/>
<path d="M1226 1127 c3 -10 9 -15 12 -12 3 3 0 11 -7 18 -10 9 -11 8 -5 -6z"/>
<path d="M1250 1129 c0 -5 5 -7 10 -4 6 3 10 8 10 11 0 2 -4 4 -10 4 -5 0 -10
-5 -10 -11z"/>
<path d="M1310 1129 c0 -5 5 -7 10 -4 6 3 10 8 10 11 0 2 -4 4 -10 4 -5 0 -10
-5 -10 -11z"/>
<path d="M1347 1123 c3 -7 6 -13 8 -13 2 0 5 6 8 13 3 8 -1 14 -8 14 -7 0 -11
-6 -8 -14z"/>
<path d="M1477 1125 c-8 -20 9 -28 30 -15 16 9 15 10 -4 5 -18 -5 -22 -3 -17
9 3 9 4 16 1 16 -3 0 -7 -7 -10 -15z"/>
<path d="M628 1108 c5 -5 16 -8 23 -6 8 3 3 7 -10 11 -17 4 -21 3 -13 -5z"/>
<path d="M1370 1110 c0 -5 5 -10 10 -10 6 0 10 5 10 10 0 6 -4 10 -10 10 -5 0
-10 -4 -10 -10z"/>
<path d="M1437 1111 c2 -2 -5 -9 -14 -16 -13 -9 -13 -14 -3 -20 9 -6 11 -4 5
5 -6 10 -3 12 13 8 12 -4 25 -1 29 5 3 7 3 9 -2 5 -4 -4 -13 -2 -19 5 -6 7
-10 10 -9 8z"/>
<path d="M1533 1105 c0 -8 4 -12 9 -9 5 3 6 10 3 15 -9 13 -12 11 -12 -6z"/>
<path d="M1615 1110 c3 -5 8 -10 11 -10 2 0 4 5 4 10 0 6 -5 10 -11 10 -5 0
-7 -4 -4 -10z"/>
<path d="M696 1093 c-10 -10 -7 -33 4 -33 5 0 6 8 3 18 -6 15 -5 15 10 3 10
-8 19 -12 22 -10 2 3 -4 10 -14 16 -11 7 -22 9 -25 6z"/>
<path d="M1513 1082 c0 -12 5 -22 9 -22 11 0 10 12 -2 30 -7 12 -9 10 -7 -8z"/>
<path d="M1393 1064 c0 -17 2 -22 7 -13 5 6 6 18 3 26 -8 19 -10 16 -10 -13z"/>
<path d="M1470 1070 c0 -5 7 -7 15 -4 8 4 15 8 15 10 0 2 -7 4 -15 4 -8 0 -15
-4 -15 -10z"/>
<path d="M1616 1072 c-3 -5 1 -9 9 -9 8 0 12 4 9 9 -3 4 -7 8 -9 8 -2 0 -6 -4
-9 -8z"/>
<path d="M596 1057 c3 -10 9 -15 12 -12 3 3 0 11 -7 18 -10 9 -11 8 -5 -6z"/>
<path d="M1414 1048 c-7 -11 5 -28 19 -27 9 0 9 2 0 6 -20 7 -15 19 7 20 13 1
18 -2 14 -9 -4 -7 -2 -8 5 -4 6 4 9 11 6 16 -6 10 -45 9 -51 -2z"/>
<path d="M1493 1054 c9 -9 -25 -44 -36 -37 -6 4 -7 1 -2 -6 5 -9 13 -7 31 10
21 19 24 39 7 39 -4 0 -4 -3 0 -6z"/>
<path d="M575 1039 c-4 -6 -5 -12 -2 -15 2 -3 7 2 10 11 7 17 1 20 -8 4z"/>
<path d="M619 1033 c-1 -5 -1 -12 0 -17 1 -5 -5 -6 -14 -3 -8 4 -15 2 -15 -4
0 -6 8 -9 18 -7 9 2 16 10 14 17 -2 9 4 12 18 8 11 -3 18 -1 14 4 -6 11 -34
12 -35 2z"/>
<path d="M1396 1017 c3 -10 9 -15 12 -12 3 3 0 11 -7 18 -10 9 -11 8 -5 -6z"/>
<path d="M1359 1002 c-13 -15 -12 -16 3 -4 15 12 17 11 15 -7 -1 -14 -8 -19
-21 -18 -15 1 -20 -4 -20 -22 0 -14 6 -26 14 -29 9 -2 11 0 5 5 -19 15 -14 42
7 40 14 -1 22 5 24 20 5 29 -10 37 -27 15z"/>
<path d="M1536 1008 c3 -5 10 -6 15 -3 13 9 11 12 -6 12 -8 0 -12 -4 -9 -9z"/>
<path d="M573 990 c1 -14 6 -23 11 -22 5 2 13 -2 18 -10 8 -11 9 -11 6 0 -2 8
-8 13 -13 12 -6 -1 -13 9 -17 22 -7 22 -7 22 -5 -2z"/>
<path d="M525 990 c-3 -5 -1 -10 4 -10 6 0 11 5 11 10 0 6 -2 10 -4 10 -3 0
-8 -4 -11 -10z"/>
<path d="M1420 996 c0 -2 7 -6 15 -10 8 -3 15 -1 15 4 0 6 -7 10 -15 10 -8 0
-15 -2 -15 -4z"/>
<path d="M495 969 c-5 -8 -4 -10 3 -5 12 7 16 -5 13 -31 -1 -7 3 -13 8 -13 11
0 6 39 -8 53 -5 5 -12 4 -16 -4z"/>
<path d="M550 974 c0 -13 18 -39 24 -34 2 3 -2 14 -10 24 -8 11 -14 16 -14 10z"/>
<path d="M1475 970 c3 -5 8 -10 11 -10 2 0 4 5 4 10 0 6 -5 10 -11 10 -5 0 -7
-4 -4 -10z"/>
<path d="M1294 949 c-3 -6 -2 -15 4 -21 6 -6 12 -6 17 3 5 8 4 10 -3 5 -7 -4
-12 -3 -12 3 0 5 6 12 13 14 9 4 9 6 0 6 -6 1 -15 -4 -19 -10z"/>
<path d="M478 943 c7 -3 16 -2 19 1 4 3 -2 6 -13 5 -11 0 -14 -3 -6 -6z"/>
<path d="M416 932 c-2 -4 -1 -14 4 -22 7 -11 9 -9 7 8 -1 24 -3 26 -11 14z"/>
<path d="M590 930 c0 -5 5 -10 10 -10 6 0 10 5 10 10 0 6 -4 10 -10 10 -5 0
-10 -4 -10 -10z"/>
<path d="M1270 931 c0 -6 4 -13 10 -16 6 -3 7 1 4 9 -7 18 -14 21 -14 7z"/>
<path d="M1375 931 c-3 -5 0 -13 6 -17 7 -4 9 -3 5 4 -3 5 0 13 6 15 9 4 10 6
1 6 -6 1 -14 -3 -18 -8z"/>
<path d="M488 912 c8 -5 13 -13 13 -18 -1 -5 9 -9 22 -9 12 0 21 5 20 13 -2 6
6 12 17 12 11 0 19 -5 18 -12 -2 -6 5 -14 16 -16 23 -5 43 13 25 23 -8 5 -10
4 -5 -3 5 -8 0 -12 -13 -12 -12 0 -20 6 -18 13 1 7 -8 12 -23 12 -15 0 -24 -5
-22 -12 1 -7 -7 -13 -18 -13 -11 0 -19 5 -17 11 1 6 -5 14 -13 16 -12 4 -12 3
-2 -5z"/>
<path d="M1310 910 c-13 -8 -12 -10 3 -10 9 0 17 5 17 10 0 12 -1 12 -20 0z"/>
<path d="M1270 890 c0 -5 5 -10 10 -10 6 0 10 5 10 10 0 6 -4 10 -10 10 -5 0
-10 -4 -10 -10z"/>
<path d="M1336 892 c-2 -4 0 -14 6 -22 8 -12 9 -12 4 2 -3 10 1 18 12 21 16 4
16 5 0 6 -9 0 -19 -3 -22 -7z"/>
<path d="M456 877 c2 -7 15 -13 29 -13 33 -2 32 2 -4 14 -22 8 -29 8 -25 -1z"/>
<path d="M542 872 c-8 -6 -2 -9 18 -9 20 0 26 3 18 9 -7 4 -15 8 -18 8 -3 0
-11 -4 -18 -8z"/>
<path d="M620 870 c-8 -5 -10 -10 -5 -10 6 0 17 5 25 10 8 5 11 10 5 10 -5 0
-17 -5 -25 -10z"/>
<path d="M717 863 c4 -10 2 -14 -5 -9 -6 3 -13 2 -16 -3 -4 -5 2 -8 11 -7 19
3 32 36 14 36 -6 0 -7 -7 -4 -17z"/>
<path d="M760 870 c0 -5 5 -10 11 -10 5 0 7 5 4 10 -3 6 -8 10 -11 10 -2 0 -4
-4 -4 -10z"/>
<path d="M1235 870 c-8 -13 4 -32 16 -25 5 4 9 -3 9 -14 0 -12 -6 -20 -12 -18
-8 1 -13 -8 -13 -22 0 -15 6 -25 18 -27 9 -1 15 2 11 7 -3 5 -10 7 -15 4 -5
-4 -9 4 -9 16 0 17 3 19 14 10 10 -9 13 -5 12 22 -1 20 -6 31 -13 30 -7 -2
-13 1 -13 6 0 5 6 12 13 14 9 4 9 6 0 6 -6 1 -15 -3 -18 -9z"/>
<path d="M1297 865 c-4 -8 -1 -17 5 -21 7 -5 8 -2 3 6 -6 10 -4 12 8 7 11 -4
14 -2 10 9 -7 18 -19 18 -26 -1z"/>
<path d="M350 850 c0 -5 5 -10 11 -10 5 0 7 5 4 10 -3 6 -8 10 -11 10 -2 0 -4
-4 -4 -10z"/>
<path d="M395 850 c-3 -5 -1 -10 4 -10 6 0 11 5 11 10 0 6 -2 10 -4 10 -3 0
-8 -4 -11 -10z"/>
<path d="M1199 838 c15 -21 31 -23 31 -6 0 6 -3 8 -7 5 -3 -4 -13 -1 -22 6
-14 11 -14 10 -2 -5z"/>
<path d="M1375 830 c-3 -5 -1 -10 4 -10 6 0 11 5 11 10 0 6 -2 10 -4 10 -3 0
-8 -4 -11 -10z"/>
<path d="M1140 790 c-12 -7 -10 -9 8 -7 12 0 22 5 22 9 0 11 -12 10 -30 -2z"/>
<path d="M1179 778 c-13 -44 -1 -69 21 -43 7 8 16 12 21 9 5 -3 9 0 9 5 0 16
-11 13 -33 -6 -18 -17 -19 -17 -16 2 2 11 9 23 14 27 6 5 5 8 -2 8 -7 0 -13
-1 -14 -2z"/>
<path d="M812 750 c0 -14 2 -19 5 -12 2 6 2 18 0 25 -3 6 -5 1 -5 -13z"/>
<path d="M1151 754 c0 -11 3 -14 6 -6 3 7 2 16 -1 19 -3 4 -6 -2 -5 -13z"/>
<path d="M1099 732 c-1 -4 -1 -10 0 -14 0 -4 -7 -7 -17 -5 -9 1 -18 -2 -19 -8
-1 -5 -10 -13 -20 -17 -16 -7 -16 -8 2 -5 11 2 19 8 18 15 -2 7 7 11 20 9 12
-1 21 3 20 10 -2 6 6 11 17 10 12 -1 18 -8 17 -20 -1 -12 5 -21 16 -22 9 -2
15 1 11 6 -3 5 -10 7 -15 4 -5 -4 -8 4 -6 16 1 16 -4 23 -20 25 -13 2 -24 1
-24 -4z"/>
<path d="M1296 732 c-3 -5 1 -9 9 -9 8 0 12 4 9 9 -3 4 -7 8 -9 8 -2 0 -6 -4
-9 -8z"/>
<path d="M1113 681 c1 -11 7 -23 14 -26 11 -4 11 0 2 18 -16 31 -18 32 -16 8z"/>
<path d="M1195 690 c-3 -5 -1 -10 4 -10 6 0 11 5 11 10 0 6 -2 10 -4 10 -3 0
-8 -4 -11 -10z"/>
<path d="M1078 673 c7 -3 16 -2 19 1 4 3 -2 6 -13 5 -11 0 -14 -3 -6 -6z"/>
<path d="M764 644 c-18 -14 -18 -15 4 -4 12 6 22 13 22 15 0 8 -5 6 -26 -11z"/>
<path d="M1070 651 c8 -5 18 -7 22 -5 4 3 8 1 8 -5 0 -5 -5 -12 -10 -14 -6 -3
-5 -4 2 -3 23 5 14 29 -12 33 -18 2 -21 1 -10 -6z"/>
<path d="M990 632 c0 -4 10 -9 22 -9 18 -2 20 0 8 7 -18 12 -30 13 -30 2z"/>
<path d="M1053 626 c3 -8 2 -17 -4 -20 -5 -2 -4 -3 2 -2 15 3 21 36 7 36 -6 0
-8 -6 -5 -14z"/>
<path d="M754 587 c-1 -30 -1 -30 9 -9 6 14 7 26 1 32 -5 5 -9 -4 -10 -23z"/>
<path d="M970 610 c0 -5 5 -10 11 -10 5 0 7 5 4 10 -3 6 -8 10 -11 10 -2 0 -4
-4 -4 -10z"/>
<path d="M1066 595 c-11 -8 -15 -15 -9 -15 6 0 16 7 23 15 16 19 11 19 -14 0z"/>
<path d="M950 580 c0 -5 7 -7 15 -4 8 4 15 8 15 10 0 2 -7 4 -15 4 -8 0 -15
-4 -15 -10z"/>
<path d="M990 570 c0 -5 5 -10 10 -10 6 0 10 5 10 10 0 6 -4 10 -10 10 -5 0
-10 -4 -10 -10z"/>
<path d="M1031 561 c-8 -5 -9 -11 -3 -15 5 -3 12 1 16 9 6 17 6 18 -13 6z"/>
<path d="M939 551 c8 -5 21 -7 29 -3 10 3 13 1 8 -6 -3 -6 2 -15 12 -21 14 -7
19 -6 19 4 0 7 -7 11 -14 8 -8 -3 -13 0 -11 8 2 8 -8 14 -27 15 -20 2 -25 0
-16 -5z"/>
<path d="M736 527 c3 -10 9 -15 12 -12 3 3 0 11 -7 18 -10 9 -11 8 -5 -6z"/>
<path d="M918 532 c13 -4 23 -11 22 -17 -1 -5 6 -11 14 -13 9 -2 16 1 16 7 0
6 -7 8 -15 4 -10 -3 -15 0 -13 8 2 8 -7 14 -22 16 -24 2 -24 2 -2 -5z"/>
<path d="M865 508 l-20 -21 23 12 c12 6 22 16 22 21 0 13 -2 12 -25 -12z"/>
<path d="M911 503 c7 -12 15 -20 18 -17 3 2 -3 12 -13 22 -17 16 -18 16 -5 -5z"/>
<path d="M1020 516 c0 -2 8 -10 18 -17 15 -13 16 -12 3 4 -13 16 -21 21 -21
13z"/>
<path d="M880 488 c-12 -8 -12 -9 2 -5 9 3 19 1 22 -6 3 -9 5 -9 5 0 1 18 -13
23 -29 11z"/>
<path d="M713 465 c0 -8 4 -12 9 -9 4 3 8 9 8 15 0 5 -4 9 -8 9 -5 0 -9 -7 -9
-15z"/>
<path d="M833 465 c2 -11 9 -19 15 -17 7 1 12 -7 12 -19 0 -11 -4 -18 -9 -15
-10 7 -43 -39 -34 -48 10 -10 33 -7 33 4 0 5 -7 7 -16 3 -14 -5 -14 -3 -3 15
7 11 18 20 23 19 6 -1 11 8 11 21 0 12 -4 22 -10 21 -5 0 -13 8 -17 18 -7 16
-8 16 -5 -2z"/>
<path d="M921 462 c-1 -7 -5 -11 -10 -7 -6 3 -15 -5 -21 -17 -9 -20 -9 -21 2
-7 7 9 21 15 30 13 10 -1 21 3 25 8 3 6 1 8 -5 4 -5 -3 -13 0 -15 6 -4 10 -6
10 -6 0z"/>
<path d="M676 423 c-6 -14 -5 -15 5 -6 7 7 10 15 7 18 -3 3 -9 -2 -12 -12z"/>
<path d="M772 423 c2 -10 10 -17 16 -15 15 3 16 -14 2 -21 -6 -3 -5 -4 2 -3 7
2 13 9 13 17 0 8 -6 13 -14 11 -8 -2 -11 3 -8 13 4 8 2 15 -4 15 -6 0 -9 -8
-7 -17z"/>
<path d="M810 430 c0 -5 5 -10 10 -10 6 0 10 5 10 10 0 6 -4 10 -10 10 -5 0
-10 -4 -10 -10z"/>
<path d="M712 390 c0 -14 2 -19 5 -12 2 6 2 18 0 25 -3 6 -5 1 -5 -13z"/>
<path d="M874 394 c-18 -14 -18 -15 4 -4 12 6 22 13 22 15 0 8 -5 6 -26 -11z"/>
<path d="M680 380 c-6 -11 -8 -20 -6 -20 3 0 10 9 16 20 6 11 8 20 6 20 -3 0
-10 -9 -16 -20z"/>
<path d="M753 380 c1 -11 5 -20 9 -20 3 0 6 9 5 20 -1 11 -5 20 -9 20 -3 0 -6
-9 -5 -20z"/>
<path d="M959 383 c-13 -16 -12 -17 4 -4 16 13 21 21 13 21 -2 0 -10 -8 -17
-17z"/>
<path d="M690 350 c0 -5 5 -10 10 -10 6 0 10 5 10 10 0 6 -4 10 -10 10 -5 0
-10 -4 -10 -10z"/>
<path d="M728 352 c8 -5 13 -13 13 -18 -1 -5 9 -9 22 -9 13 0 21 5 19 14 -2 8
3 11 13 8 8 -4 15 -2 15 4 0 6 -8 9 -17 7 -10 -2 -17 -10 -15 -16 1 -7 -7 -12
-18 -12 -11 0 -19 5 -17 11 1 6 -5 14 -13 16 -12 4 -12 3 -2 -5z"/>
<path d="M819 333 c-13 -16 -12 -17 4 -4 9 7 17 15 17 17 0 8 -8 3 -21 -13z"/>
<path d="M656 329 c3 -5 10 -7 15 -4 5 4 9 -3 9 -15 0 -13 -4 -19 -12 -14 -7
5 -8 3 -3 -5 10 -17 28 1 23 24 -1 10 -11 19 -21 21 -9 1 -15 -2 -11 -7z"/>
<path d="M710 321 c0 -9 30 -24 36 -18 2 1 -6 8 -16 15 -11 7 -20 8 -20 3z"/>
<path d="M782 311 c-11 -7 -11 -9 0 -14 9 -3 15 1 15 9 0 8 -1 14 -1 14 -1 0
-7 -4 -14 -9z"/>
<path d="M716 287 c3 -10 9 -15 12 -12 3 3 0 11 -7 18 -10 9 -11 8 -5 -6z"/>
<path d="M750 275 c0 -8 2 -15 4 -15 2 0 6 7 10 15 3 8 1 15 -4 15 -6 0 -10
-7 -10 -15z"/>
<path d="M679 263 c-12 -16 -12 -17 2 -6 9 7 19 10 22 6 4 -3 7 -1 7 5 0 17
-16 15 -31 -5z"/>
<path d="M776 248 c3 -5 10 -6 15 -3 13 9 11 12 -6 12 -8 0 -12 -4 -9 -9z"/>
<path d="M656 237 c3 -8 11 -14 19 -14 20 0 19 4 -5 17 -15 8 -18 8 -14 -3z"/>
<path d="M712 230 c0 -14 2 -19 5 -12 2 6 2 18 0 25 -3 6 -5 1 -5 -13z"/>
<path d="M595 130 c-3 -5 -1 -10 4 -10 6 0 11 5 11 10 0 6 -2 10 -4 10 -3 0
-8 -4 -11 -10z"/>
<path d="M566 68 c3 -5 10 -6 15 -3 13 9 11 12 -6 12 -8 0 -12 -4 -9 -9z"/>
<path d="M615 70 c-3 -5 -1 -10 4 -10 6 0 11 5 11 10 0 6 -2 10 -4 10 -3 0 -8
-4 -11 -10z"/>
</g>
</svg>
