<svg width="54" height="76" viewBox="0 0 54 76" fill="none" xmlns="http://www.w3.org/2000/svg">
<path opacity="0.2" d="M11.5587 74.6927C11.0928 74.4255 10.7332 74.0113 10.5385 73.5179C10.3437 73.0244 10.3255 72.4808 10.4866 71.9759L19.1864 44.6419L3.3349 44.579C2.86906 44.5773 2.41389 44.442 2.02559 44.1896C1.63728 43.9372 1.33284 43.5789 1.14984 43.1589C0.966833 42.7389 0.913285 42.2756 0.995804 41.8261C1.07832 41.3766 1.29329 40.9607 1.61417 40.6297L39.9339 1.02909C40.3047 0.645596 40.797 0.396564 41.3307 0.32257C41.8644 0.248577 42.4079 0.353991 42.8727 0.621631C43.3375 0.88927 43.6962 1.30335 43.8902 1.79639C44.0843 2.28942 44.1023 2.83232 43.9413 3.33662L35.2415 30.6753L51.093 30.7382C51.5588 30.7399 52.014 30.8752 52.4023 31.1276C52.7906 31.38 53.0951 31.7383 53.2781 32.1583C53.4611 32.5783 53.5146 33.0417 53.4321 33.4911C53.3496 33.9406 53.1346 34.3565 52.8137 34.6876L14.494 74.2881C14.1237 74.6711 13.6321 74.92 13.0992 74.9943C12.5662 75.0686 12.0233 74.9639 11.5586 74.6974L11.5587 74.6927Z" fill="url(#paint0_linear_1477_193)"/>
<defs>
<linearGradient id="paint0_linear_1477_193" x1="27.0655" y1="75.0743" x2="27.3624" y2="0.24275" gradientUnits="userSpaceOnUse">
<stop stop-color="#F9933F"/>
<stop offset="1" stop-color="#F21654"/>
</linearGradient>
</defs>
</svg>
