<svg width="17" height="24" viewBox="0 0 17 24" fill="none" xmlns="http://www.w3.org/2000/svg">
<path d="M3.30909 22.9906C3.16545 22.9082 3.05454 22.7804 2.99449 22.6283C2.93444 22.4761 2.9288 22.3085 2.97849 22.1528L5.66129 13.7237L0.773095 13.7043C0.629443 13.7038 0.489081 13.662 0.369338 13.5842C0.249595 13.5064 0.155712 13.3959 0.0992793 13.2664C0.0428471 13.1368 0.0263338 12.9939 0.0517788 12.8553C0.0772257 12.7167 0.143518 12.5885 0.24247 12.4864L12.0593 0.274598C12.1736 0.156339 12.3254 0.0795447 12.49 0.0567259C12.6546 0.0339089 12.8222 0.0664157 12.9655 0.148948C13.1089 0.23148 13.2195 0.359174 13.2793 0.511211C13.3392 0.66325 13.3447 0.830668 13.2951 0.986181L10.6123 9.41672L15.5005 9.43612C15.6441 9.43664 15.7845 9.47838 15.9042 9.5562C16.024 9.63402 16.1178 9.74452 16.1743 9.87404C16.2307 10.0036 16.2472 10.1464 16.2218 10.2851C16.1963 10.4237 16.13 10.5519 16.0311 10.654L4.21428 22.8658C4.10008 22.9839 3.94849 23.0606 3.78414 23.0835C3.6198 23.1065 3.45237 23.0742 3.30909 22.992L3.30909 22.9906Z" fill="url(#paint0_linear_1477_299)"/>
<defs>
<linearGradient id="paint0_linear_1477_299" x1="8.09099" y1="23.1082" x2="8.18257" y2="0.0321118" gradientUnits="userSpaceOnUse">
<stop stop-color="#F9933F"/>
<stop offset="1" stop-color="#F21654"/>
</linearGradient>
</defs>
</svg>
